<?xml version="1.0" encoding="utf-8"?>

<!-- License Agreement at http://iconmonstr.com/license/ -->

<!DOCTYPE svg PUBLIC "-//W3C//DTD SVG 1.1//EN" "http://www.w3.org/Graphics/SVG/1.1/DTD/svg11.dtd">
<svg version="1.1" xmlns="http://www.w3.org/2000/svg" xmlns:xlink="http://www.w3.org/1999/xlink" x="0px" y="0px"
	 width="512px" height="512px" viewBox="0 0 512 512" style="enable-background:new 0 0 512 512;" xml:space="preserve">
<path id="cube-7-icon" d="M256,50L67.166,153v208.246L256,462l188.834-100.754V154.124L256,50z M255.916,89.162l135.875,74.928
	l-37.787,19.715L256,130.46l-97.267,52.942l-37.787-20.62L255.916,89.162z M256.117,343.376l-65.599-34.735L256,274.064
	l64.19,35.867L256.117,343.376z M170.166,216.269l68.667-37.376v65.364l-68.667,36.319V216.269z M273.166,244.374v-65.481
	l68.668,37.376v66.362L273.166,244.374z M101.5,340.66V191.282l34.333,18.734v108.516l103,54.551v40.838L101.5,340.66z
	 M410.5,340.66l-137.334,73.26v-40.703l103-53.78V210.913l34.334-17.888V340.66z"/>
</svg>
