<?xml version="1.0" encoding="utf-8"?>


<!-- The icon can be used freely in both personal and commercial projects with no attribution required, but always appreciated. 
You may NOT sub-license, resell, rent, redistribute or otherwise transfer the icon without express written permission from iconmonstr.com -->


<!DOCTYPE svg PUBLIC "-//W3C//DTD SVG 1.1//EN" "http://www.w3.org/Graphics/SVG/1.1/DTD/svg11.dtd">

<svg version="1.1" xmlns="http://www.w3.org/2000/svg" xmlns:xlink="http://www.w3.org/1999/xlink" x="0px" y="0px"

	 width="512px" height="512px" viewBox="0 0 512 512" enable-background="new 0 0 512 512" xml:space="preserve">

<path id="square-dashed-icon" d="M208,462v-50.01h96V462H208z M50,303.528h50.01v-96H50V303.528z M354,100.01h57.99v57.519H462V50

	H354V100.01z M208,50v50.01h96V50H208z M158,411.99h-57.99v-58.462H50V462h108V411.99z M411.99,353.528v58.462H354V462h108V353.528

	H411.99z M462,207.528h-50.01v96H462V207.528z M100.01,157.528V100.01H158V50H50v107.528H100.01z"/>

</svg>

