<?xml version="1.0" encoding="utf-8"?>

<!-- License Agreement at http://iconmonstr.com/license/ -->

<!DOCTYPE svg PUBLIC "-//W3C//DTD SVG 1.1//EN" "http://www.w3.org/Graphics/SVG/1.1/DTD/svg11.dtd">
<svg version="1.1" xmlns="http://www.w3.org/2000/svg" xmlns:xlink="http://www.w3.org/1999/xlink" x="0px" y="0px"
	 width="512px" height="512px" viewBox="0 0 512 512" style="enable-background:new 0 0 512 512;" xml:space="preserve">
<path id="cube-6-icon" d="M256,50L67.166,153v208.246L256,462l188.834-100.754V154.123L256,50z M391.791,164.09l-135.707,72.405
	l-135.138-73.712l134.97-73.621L391.791,164.09z M101.5,191.281l137.333,74.902V413.92L101.5,340.66V191.281z M273.166,413.92
	V266.302L410.5,193.025V340.66L273.166,413.92z M387.801,322.688c0.117,5.7-4.393,10.394-10.092,10.495
	c-5.699,0.133-10.377-4.393-10.494-10.093c-0.102-5.683,4.393-10.394,10.092-10.495
	C383.006,312.479,387.701,316.988,387.801,322.688z M341.28,293.904c-5.7,0.117-10.21,4.811-10.093,10.494
	c0.102,5.684,4.795,10.209,10.495,10.109c5.7-0.117,10.192-4.828,10.092-10.512C351.657,298.312,346.98,293.787,341.28,293.904z
	 M304.684,275.111c-5.699,0.117-10.209,4.828-10.092,10.512c0.1,5.683,4.795,10.209,10.494,10.092s10.193-4.812,10.092-10.512
	C315.061,279.521,310.383,275.011,304.684,275.111z M134.693,312.596c5.699,0.102,10.192,4.812,10.092,10.495
	c-0.117,5.7-4.795,10.226-10.494,10.093c-5.7-0.102-10.21-4.795-10.093-10.495C124.299,316.988,128.993,312.479,134.693,312.596z
	 M160.226,303.996c-0.101,5.684,4.392,10.395,10.092,10.512c5.7,0.1,10.394-4.426,10.494-10.109
	c0.117-5.684-4.392-10.377-10.092-10.494S160.343,298.312,160.226,303.996z M196.821,285.203c-0.101,5.7,4.393,10.395,10.093,10.512
	c5.699,0.117,10.394-4.409,10.494-10.092c0.117-5.684-4.393-10.395-10.092-10.512C201.616,275.011,196.939,279.521,196.821,285.203z
	 M256,186.529c-5.684,0-10.294,4.61-10.294,10.302c0,5.691,4.61,10.301,10.294,10.301s10.293-4.61,10.293-10.301
	C266.293,191.139,261.684,186.529,256,186.529z M256,148.331c-5.684,0-10.294,4.61-10.294,10.302s4.61,10.302,10.294,10.302
	s10.293-4.61,10.293-10.302S261.684,148.331,256,148.331z M256,113.461c-5.684,0-10.294,4.61-10.294,10.302
	s4.61,10.302,10.294,10.302s10.293-4.61,10.293-10.302S261.684,113.461,256,113.461z"/>
</svg>
